M48
; DRILL file {KiCad 5.1.9-1.fc32} date Sat Feb 20 11:42:54 2021
; FORMAT={-:-/ absolute / metric / decimal}
; #@! TF.CreationDate,2021-02-20T11:42:54+01:00
; #@! TF.GenerationSoftware,Kicad,Pcbnew,5.1.9-1.fc32
FMAT,2
METRIC
T1C0.400
T2C0.600
%
G90
G05
T1
X162.052Y-132.588
X162.052Y-134.874
X162.052Y-137.16
X163.068Y-130.556
X167.132Y-133.858
X167.386Y-135.89
X170.942Y-136.017
X172.212Y-134.366
X174.498Y-134.366
X174.879Y-137.922
X175.641Y-133.35
X179.578Y-135.763
T2
X151.384Y-129.667
X152.22Y-129.667
X168.402Y-129.85
X168.402Y-130.7
X170.434Y-130.6
X170.434Y-131.5
X177.165Y-131.572
X177.609Y-135.953
X184.7Y-129.667
X185.547Y-129.667
T0
M30
