%TF.GenerationSoftware,KiCad,Pcbnew,5.1.9-1.fc32*%
%TF.CreationDate,2021-02-20T11:42:22+01:00*%
%TF.ProjectId,rgb_led_strip_amp,7267625f-6c65-4645-9f73-747269705f61,rev?*%
%TF.SameCoordinates,Original*%
%TF.FileFunction,Copper,L1,Top*%
%TF.FilePolarity,Positive*%
%FSLAX46Y46*%
G04 Gerber Fmt 4.6, Leading zero omitted, Abs format (unit mm)*
G04 Created by KiCad (PCBNEW 5.1.9-1.fc32) date 2021-02-20 11:42:22*
%MOMM*%
%LPD*%
G01*
G04 APERTURE LIST*
%TA.AperFunction,Profile*%
%ADD10C,0.050000*%
%TD*%
%TA.AperFunction,NonConductor*%
%ADD11C,0.150000*%
%TD*%
%TA.AperFunction,SMDPad,CuDef*%
%ADD12R,0.900000X0.800000*%
%TD*%
%TA.AperFunction,SMDPad,CuDef*%
%ADD13R,1.200000X2.500000*%
%TD*%
%TA.AperFunction,SMDPad,CuDef*%
%ADD14R,0.800000X0.900000*%
%TD*%
%TA.AperFunction,SMDPad,CuDef*%
%ADD15R,2.500000X1.300000*%
%TD*%
%TA.AperFunction,ViaPad*%
%ADD16C,0.900000*%
%TD*%
%TA.AperFunction,ViaPad*%
%ADD17C,1.000000*%
%TD*%
%TA.AperFunction,Conductor*%
%ADD18C,0.609600*%
%TD*%
%TA.AperFunction,Conductor*%
%ADD19C,1.117600*%
%TD*%
%TA.AperFunction,Conductor*%
%ADD20C,0.812800*%
%TD*%
G04 APERTURE END LIST*
D10*
X186944000Y-127762000D02*
X149860000Y-127762000D01*
X186944000Y-138938000D02*
X186944000Y-127762000D01*
X149860000Y-138938000D02*
X186944000Y-138938000D01*
X149860000Y-127762000D02*
X149860000Y-138938000D01*
D11*
X149860000Y-138938000D02*
X149860000Y-127762000D01*
X186944000Y-138938000D02*
X149860000Y-138938000D01*
X186944000Y-127762000D02*
X186944000Y-138938000D01*
X149860000Y-127762000D02*
X186944000Y-127762000D01*
D12*
%TO.P,Q4,1*%
%TO.N,Net-(Q3-Pad3)*%
X177054000Y-133416000D03*
%TO.P,Q4,2*%
%TO.N,GND*%
X177054000Y-135316000D03*
%TO.P,Q4,3*%
%TO.N,/OUT2*%
X179054000Y-134366000D03*
%TD*%
%TO.P,R9,2*%
%TO.N,GND*%
%TA.AperFunction,SMDPad,CuDef*%
G36*
G01*
X178253500Y-137912003D02*
X178253500Y-136661997D01*
G75*
G02*
X178503497Y-136412000I249997J0D01*
G01*
X179128503Y-136412000D01*
G75*
G02*
X179378500Y-136661997I0J-249997D01*
G01*
X179378500Y-137912003D01*
G75*
G02*
X179128503Y-138162000I-249997J0D01*
G01*
X178503497Y-138162000D01*
G75*
G02*
X178253500Y-137912003I0J249997D01*
G01*
G37*
%TD.AperFunction*%
%TO.P,R9,1*%
%TO.N,Net-(Q5-Pad3)*%
%TA.AperFunction,SMDPad,CuDef*%
G36*
G01*
X175328500Y-137912003D02*
X175328500Y-136661997D01*
G75*
G02*
X175578497Y-136412000I249997J0D01*
G01*
X176203503Y-136412000D01*
G75*
G02*
X176453500Y-136661997I0J-249997D01*
G01*
X176453500Y-137912003D01*
G75*
G02*
X176203503Y-138162000I-249997J0D01*
G01*
X175578497Y-138162000D01*
G75*
G02*
X175328500Y-137912003I0J249997D01*
G01*
G37*
%TD.AperFunction*%
%TD*%
%TO.P,R8,2*%
%TO.N,Net-(D3-Pad1)*%
%TA.AperFunction,SMDPad,CuDef*%
G36*
G01*
X158866000Y-136534997D02*
X158866000Y-137785003D01*
G75*
G02*
X158616003Y-138035000I-249997J0D01*
G01*
X157990997Y-138035000D01*
G75*
G02*
X157741000Y-137785003I0J249997D01*
G01*
X157741000Y-136534997D01*
G75*
G02*
X157990997Y-136285000I249997J0D01*
G01*
X158616003Y-136285000D01*
G75*
G02*
X158866000Y-136534997I0J-249997D01*
G01*
G37*
%TD.AperFunction*%
%TO.P,R8,1*%
%TO.N,Net-(Q5-Pad1)*%
%TA.AperFunction,SMDPad,CuDef*%
G36*
G01*
X161791000Y-136534997D02*
X161791000Y-137785003D01*
G75*
G02*
X161541003Y-138035000I-249997J0D01*
G01*
X160915997Y-138035000D01*
G75*
G02*
X160666000Y-137785003I0J249997D01*
G01*
X160666000Y-136534997D01*
G75*
G02*
X160915997Y-136285000I249997J0D01*
G01*
X161541003Y-136285000D01*
G75*
G02*
X161791000Y-136534997I0J-249997D01*
G01*
G37*
%TD.AperFunction*%
%TD*%
%TO.P,R7,2*%
%TO.N,Net-(Q5-Pad1)*%
%TA.AperFunction,SMDPad,CuDef*%
G36*
G01*
X163438000Y-136534997D02*
X163438000Y-137785003D01*
G75*
G02*
X163188003Y-138035000I-249997J0D01*
G01*
X162562997Y-138035000D01*
G75*
G02*
X162313000Y-137785003I0J249997D01*
G01*
X162313000Y-136534997D01*
G75*
G02*
X162562997Y-136285000I249997J0D01*
G01*
X163188003Y-136285000D01*
G75*
G02*
X163438000Y-136534997I0J-249997D01*
G01*
G37*
%TD.AperFunction*%
%TO.P,R7,1*%
%TO.N,+12V*%
%TA.AperFunction,SMDPad,CuDef*%
G36*
G01*
X166363000Y-136534997D02*
X166363000Y-137785003D01*
G75*
G02*
X166113003Y-138035000I-249997J0D01*
G01*
X165487997Y-138035000D01*
G75*
G02*
X165238000Y-137785003I0J249997D01*
G01*
X165238000Y-136534997D01*
G75*
G02*
X165487997Y-136285000I249997J0D01*
G01*
X166113003Y-136285000D01*
G75*
G02*
X166363000Y-136534997I0J-249997D01*
G01*
G37*
%TD.AperFunction*%
%TD*%
%TO.P,Q5,3*%
%TO.N,Net-(Q5-Pad3)*%
X174228000Y-136652000D03*
%TO.P,Q5,2*%
%TO.N,+12V*%
X172228000Y-137602000D03*
%TO.P,Q5,1*%
%TO.N,Net-(Q5-Pad1)*%
X172228000Y-135702000D03*
%TD*%
D13*
%TO.P,J2,2*%
%TO.N,GND*%
X170402000Y-131064000D03*
%TO.P,J2,1*%
%TO.N,+12V*%
X168402000Y-131064000D03*
%TD*%
%TO.P,C2,2*%
%TO.N,GND*%
%TA.AperFunction,SMDPad,CuDef*%
G36*
G01*
X164330000Y-130081000D02*
X164330000Y-131031000D01*
G75*
G02*
X164080000Y-131281000I-250000J0D01*
G01*
X163580000Y-131281000D01*
G75*
G02*
X163330000Y-131031000I0J250000D01*
G01*
X163330000Y-130081000D01*
G75*
G02*
X163580000Y-129831000I250000J0D01*
G01*
X164080000Y-129831000D01*
G75*
G02*
X164330000Y-130081000I0J-250000D01*
G01*
G37*
%TD.AperFunction*%
%TO.P,C2,1*%
%TO.N,+12V*%
%TA.AperFunction,SMDPad,CuDef*%
G36*
G01*
X166230000Y-130081000D02*
X166230000Y-131031000D01*
G75*
G02*
X165980000Y-131281000I-250000J0D01*
G01*
X165480000Y-131281000D01*
G75*
G02*
X165230000Y-131031000I0J250000D01*
G01*
X165230000Y-130081000D01*
G75*
G02*
X165480000Y-129831000I250000J0D01*
G01*
X165980000Y-129831000D01*
G75*
G02*
X166230000Y-130081000I0J-250000D01*
G01*
G37*
%TD.AperFunction*%
%TD*%
%TO.P,C1,2*%
%TO.N,GND*%
%TA.AperFunction,SMDPad,CuDef*%
G36*
G01*
X161740000Y-131031000D02*
X161740000Y-130081000D01*
G75*
G02*
X161990000Y-129831000I250000J0D01*
G01*
X162490000Y-129831000D01*
G75*
G02*
X162740000Y-130081000I0J-250000D01*
G01*
X162740000Y-131031000D01*
G75*
G02*
X162490000Y-131281000I-250000J0D01*
G01*
X161990000Y-131281000D01*
G75*
G02*
X161740000Y-131031000I0J250000D01*
G01*
G37*
%TD.AperFunction*%
%TO.P,C1,1*%
%TO.N,+12V*%
%TA.AperFunction,SMDPad,CuDef*%
G36*
G01*
X159840000Y-131031000D02*
X159840000Y-130081000D01*
G75*
G02*
X160090000Y-129831000I250000J0D01*
G01*
X160590000Y-129831000D01*
G75*
G02*
X160840000Y-130081000I0J-250000D01*
G01*
X160840000Y-131031000D01*
G75*
G02*
X160590000Y-131281000I-250000J0D01*
G01*
X160090000Y-131281000D01*
G75*
G02*
X159840000Y-131031000I0J250000D01*
G01*
G37*
%TD.AperFunction*%
%TD*%
D14*
%TO.P,D3,1*%
%TO.N,Net-(D3-Pad1)*%
X155448000Y-135652000D03*
%TO.P,D3,*%
%TO.N,*%
X156398000Y-137652000D03*
%TO.P,D3,2*%
%TO.N,/IN3*%
X154498000Y-137652000D03*
%TD*%
%TO.P,D1,1*%
%TO.N,Net-(D1-Pad1)*%
X155448000Y-129048000D03*
%TO.P,D1,*%
%TO.N,*%
X156398000Y-131048000D03*
%TO.P,D1,2*%
%TO.N,/IN1*%
X154498000Y-131048000D03*
%TD*%
%TO.P,D2,2*%
%TO.N,/IN2*%
X154498000Y-134350000D03*
%TO.P,D2,*%
%TO.N,*%
X156398000Y-134350000D03*
%TO.P,D2,1*%
%TO.N,Net-(D2-Pad1)*%
X155448000Y-132350000D03*
%TD*%
D12*
%TO.P,Q1,1*%
%TO.N,Net-(Q1-Pad1)*%
X172228000Y-131130000D03*
%TO.P,Q1,2*%
%TO.N,+12V*%
X172228000Y-133030000D03*
%TO.P,Q1,3*%
%TO.N,Net-(Q1-Pad3)*%
X174228000Y-132080000D03*
%TD*%
%TO.P,Q2,3*%
%TO.N,/OUT1*%
X182610000Y-132080000D03*
%TO.P,Q2,2*%
%TO.N,GND*%
X180610000Y-133030000D03*
%TO.P,Q2,1*%
%TO.N,Net-(Q1-Pad3)*%
X180610000Y-131130000D03*
%TD*%
%TO.P,Q3,1*%
%TO.N,Net-(Q3-Pad1)*%
X168926000Y-133416000D03*
%TO.P,Q3,2*%
%TO.N,+12V*%
X168926000Y-135316000D03*
%TO.P,Q3,3*%
%TO.N,Net-(Q3-Pad3)*%
X170926000Y-134366000D03*
%TD*%
%TO.P,Q6,3*%
%TO.N,/OUT3*%
X182610000Y-136652000D03*
%TO.P,Q6,2*%
%TO.N,GND*%
X180610000Y-137602000D03*
%TO.P,Q6,1*%
%TO.N,Net-(Q5-Pad3)*%
X180610000Y-135702000D03*
%TD*%
%TO.P,R2,1*%
%TO.N,Net-(Q1-Pad1)*%
%TA.AperFunction,SMDPad,CuDef*%
G36*
G01*
X161791000Y-131962998D02*
X161791000Y-133213002D01*
G75*
G02*
X161541002Y-133463000I-249998J0D01*
G01*
X160915998Y-133463000D01*
G75*
G02*
X160666000Y-133213002I0J249998D01*
G01*
X160666000Y-131962998D01*
G75*
G02*
X160915998Y-131713000I249998J0D01*
G01*
X161541002Y-131713000D01*
G75*
G02*
X161791000Y-131962998I0J-249998D01*
G01*
G37*
%TD.AperFunction*%
%TO.P,R2,2*%
%TO.N,Net-(D1-Pad1)*%
%TA.AperFunction,SMDPad,CuDef*%
G36*
G01*
X158866000Y-131962998D02*
X158866000Y-133213002D01*
G75*
G02*
X158616002Y-133463000I-249998J0D01*
G01*
X157990998Y-133463000D01*
G75*
G02*
X157741000Y-133213002I0J249998D01*
G01*
X157741000Y-131962998D01*
G75*
G02*
X157990998Y-131713000I249998J0D01*
G01*
X158616002Y-131713000D01*
G75*
G02*
X158866000Y-131962998I0J-249998D01*
G01*
G37*
%TD.AperFunction*%
%TD*%
%TO.P,R3,1*%
%TO.N,Net-(Q1-Pad3)*%
%TA.AperFunction,SMDPad,CuDef*%
G36*
G01*
X175332500Y-132070002D02*
X175332500Y-130819998D01*
G75*
G02*
X175582498Y-130570000I249998J0D01*
G01*
X176207502Y-130570000D01*
G75*
G02*
X176457500Y-130819998I0J-249998D01*
G01*
X176457500Y-132070002D01*
G75*
G02*
X176207502Y-132320000I-249998J0D01*
G01*
X175582498Y-132320000D01*
G75*
G02*
X175332500Y-132070002I0J249998D01*
G01*
G37*
%TD.AperFunction*%
%TO.P,R3,2*%
%TO.N,GND*%
%TA.AperFunction,SMDPad,CuDef*%
G36*
G01*
X178257500Y-132070002D02*
X178257500Y-130819998D01*
G75*
G02*
X178507498Y-130570000I249998J0D01*
G01*
X179132502Y-130570000D01*
G75*
G02*
X179382500Y-130819998I0J-249998D01*
G01*
X179382500Y-132070002D01*
G75*
G02*
X179132502Y-132320000I-249998J0D01*
G01*
X178507498Y-132320000D01*
G75*
G02*
X178257500Y-132070002I0J249998D01*
G01*
G37*
%TD.AperFunction*%
%TD*%
%TO.P,R4,1*%
%TO.N,+12V*%
%TA.AperFunction,SMDPad,CuDef*%
G36*
G01*
X166363000Y-134248998D02*
X166363000Y-135499002D01*
G75*
G02*
X166113002Y-135749000I-249998J0D01*
G01*
X165487998Y-135749000D01*
G75*
G02*
X165238000Y-135499002I0J249998D01*
G01*
X165238000Y-134248998D01*
G75*
G02*
X165487998Y-133999000I249998J0D01*
G01*
X166113002Y-133999000D01*
G75*
G02*
X166363000Y-134248998I0J-249998D01*
G01*
G37*
%TD.AperFunction*%
%TO.P,R4,2*%
%TO.N,Net-(Q3-Pad1)*%
%TA.AperFunction,SMDPad,CuDef*%
G36*
G01*
X163438000Y-134248998D02*
X163438000Y-135499002D01*
G75*
G02*
X163188002Y-135749000I-249998J0D01*
G01*
X162562998Y-135749000D01*
G75*
G02*
X162313000Y-135499002I0J249998D01*
G01*
X162313000Y-134248998D01*
G75*
G02*
X162562998Y-133999000I249998J0D01*
G01*
X163188002Y-133999000D01*
G75*
G02*
X163438000Y-134248998I0J-249998D01*
G01*
G37*
%TD.AperFunction*%
%TD*%
%TO.P,R5,2*%
%TO.N,Net-(D2-Pad1)*%
%TA.AperFunction,SMDPad,CuDef*%
G36*
G01*
X158866000Y-134248998D02*
X158866000Y-135499002D01*
G75*
G02*
X158616002Y-135749000I-249998J0D01*
G01*
X157990998Y-135749000D01*
G75*
G02*
X157741000Y-135499002I0J249998D01*
G01*
X157741000Y-134248998D01*
G75*
G02*
X157990998Y-133999000I249998J0D01*
G01*
X158616002Y-133999000D01*
G75*
G02*
X158866000Y-134248998I0J-249998D01*
G01*
G37*
%TD.AperFunction*%
%TO.P,R5,1*%
%TO.N,Net-(Q3-Pad1)*%
%TA.AperFunction,SMDPad,CuDef*%
G36*
G01*
X161791000Y-134248998D02*
X161791000Y-135499002D01*
G75*
G02*
X161541002Y-135749000I-249998J0D01*
G01*
X160915998Y-135749000D01*
G75*
G02*
X160666000Y-135499002I0J249998D01*
G01*
X160666000Y-134248998D01*
G75*
G02*
X160915998Y-133999000I249998J0D01*
G01*
X161541002Y-133999000D01*
G75*
G02*
X161791000Y-134248998I0J-249998D01*
G01*
G37*
%TD.AperFunction*%
%TD*%
%TO.P,R6,2*%
%TO.N,GND*%
%TA.AperFunction,SMDPad,CuDef*%
G36*
G01*
X168264000Y-136534998D02*
X168264000Y-137785002D01*
G75*
G02*
X168014002Y-138035000I-249998J0D01*
G01*
X167388998Y-138035000D01*
G75*
G02*
X167139000Y-137785002I0J249998D01*
G01*
X167139000Y-136534998D01*
G75*
G02*
X167388998Y-136285000I249998J0D01*
G01*
X168014002Y-136285000D01*
G75*
G02*
X168264000Y-136534998I0J-249998D01*
G01*
G37*
%TD.AperFunction*%
%TO.P,R6,1*%
%TO.N,Net-(Q3-Pad3)*%
%TA.AperFunction,SMDPad,CuDef*%
G36*
G01*
X171189000Y-136534998D02*
X171189000Y-137785002D01*
G75*
G02*
X170939002Y-138035000I-249998J0D01*
G01*
X170313998Y-138035000D01*
G75*
G02*
X170064000Y-137785002I0J249998D01*
G01*
X170064000Y-136534998D01*
G75*
G02*
X170313998Y-136285000I249998J0D01*
G01*
X170939002Y-136285000D01*
G75*
G02*
X171189000Y-136534998I0J-249998D01*
G01*
G37*
%TD.AperFunction*%
%TD*%
%TO.P,R1,1*%
%TO.N,+12V*%
%TA.AperFunction,SMDPad,CuDef*%
G36*
G01*
X166363000Y-131962998D02*
X166363000Y-133213002D01*
G75*
G02*
X166113002Y-133463000I-249998J0D01*
G01*
X165487998Y-133463000D01*
G75*
G02*
X165238000Y-133213002I0J249998D01*
G01*
X165238000Y-131962998D01*
G75*
G02*
X165487998Y-131713000I249998J0D01*
G01*
X166113002Y-131713000D01*
G75*
G02*
X166363000Y-131962998I0J-249998D01*
G01*
G37*
%TD.AperFunction*%
%TO.P,R1,2*%
%TO.N,Net-(Q1-Pad1)*%
%TA.AperFunction,SMDPad,CuDef*%
G36*
G01*
X163438000Y-131962998D02*
X163438000Y-133213002D01*
G75*
G02*
X163188002Y-133463000I-249998J0D01*
G01*
X162562998Y-133463000D01*
G75*
G02*
X162313000Y-133213002I0J249998D01*
G01*
X162313000Y-131962998D01*
G75*
G02*
X162562998Y-131713000I249998J0D01*
G01*
X163188002Y-131713000D01*
G75*
G02*
X163438000Y-131962998I0J-249998D01*
G01*
G37*
%TD.AperFunction*%
%TD*%
D15*
%TO.P,J1,3*%
%TO.N,/IN2*%
X151765000Y-134747000D03*
%TO.P,J1,2*%
%TO.N,/IN1*%
X151765000Y-132207000D03*
%TO.P,J1,1*%
%TO.N,+12V*%
X151765000Y-129667000D03*
%TO.P,J1,4*%
%TO.N,/IN3*%
X151765000Y-137287000D03*
%TD*%
%TO.P,J3,4*%
%TO.N,+12V*%
X185166000Y-129667000D03*
%TO.P,J3,1*%
%TO.N,/OUT3*%
X185166000Y-137287000D03*
%TO.P,J3,2*%
%TO.N,/OUT2*%
X185166000Y-134747000D03*
%TO.P,J3,3*%
%TO.N,/OUT1*%
X185166000Y-132207000D03*
%TD*%
D16*
%TO.N,GND*%
X163068000Y-130556000D03*
X167386000Y-135890000D03*
D17*
X170434000Y-131500000D03*
X170434000Y-130600000D03*
X177609500Y-135953500D03*
X177165000Y-131572000D03*
%TO.N,+12V*%
X185547000Y-129667000D03*
X151384000Y-129667000D03*
X152220000Y-129667000D03*
X184700000Y-129667000D03*
X168402000Y-130700000D03*
X168402000Y-129850000D03*
D16*
%TO.N,Net-(Q1-Pad1)*%
X162052000Y-132588000D03*
X174498000Y-134366000D03*
%TO.N,Net-(Q3-Pad3)*%
X175641000Y-133350000D03*
X170942000Y-136017000D03*
%TO.N,Net-(Q3-Pad1)*%
X167132000Y-133858000D03*
X162052000Y-134874000D03*
%TO.N,Net-(Q5-Pad1)*%
X172212000Y-134366000D03*
X162052000Y-137160000D03*
%TO.N,Net-(Q5-Pad3)*%
X174879000Y-137922000D03*
X179578000Y-135763000D03*
%TD*%
D18*
%TO.N,GND*%
X163830000Y-130556000D02*
X163068000Y-130556000D01*
X162240000Y-130556000D02*
X163068000Y-130556000D01*
X167701500Y-136205500D02*
X167386000Y-135890000D01*
X167701500Y-137160000D02*
X167701500Y-136205500D01*
X170402000Y-131413000D02*
X170402000Y-131064000D01*
D19*
X180405000Y-133030000D02*
X178820000Y-131445000D01*
X180610000Y-133030000D02*
X180405000Y-133030000D01*
D20*
X177165000Y-131572000D02*
X177292000Y-131445000D01*
D19*
X178820000Y-131445000D02*
X177292000Y-131445000D01*
X177054000Y-135398000D02*
X177609500Y-135953500D01*
X177054000Y-135316000D02*
X177054000Y-135398000D01*
X177609500Y-136080500D02*
X178816000Y-137287000D01*
X177609500Y-135953500D02*
X177609500Y-136080500D01*
X179131000Y-137602000D02*
X178816000Y-137287000D01*
X180610000Y-137602000D02*
X179131000Y-137602000D01*
D18*
%TO.N,+12V*%
X165800500Y-132588000D02*
X165800500Y-134874000D01*
X165800500Y-137160000D02*
X165800500Y-134874000D01*
X165730000Y-132517500D02*
X165800500Y-132588000D01*
X165730000Y-130556000D02*
X165730000Y-132517500D01*
X165800500Y-132588000D02*
X166624000Y-132588000D01*
X168148000Y-131064000D02*
X168402000Y-131064000D01*
X166624000Y-132588000D02*
X168148000Y-131064000D01*
X172228000Y-137602000D02*
X172228000Y-137398000D01*
X172228000Y-137398000D02*
X173228000Y-136398000D01*
X173228000Y-134030000D02*
X172228000Y-133030000D01*
X173228000Y-136398000D02*
X173228000Y-134030000D01*
X168926000Y-135316000D02*
X168336000Y-135316000D01*
X167894000Y-134874000D02*
X165800500Y-134874000D01*
X168336000Y-135316000D02*
X167894000Y-134874000D01*
X170500000Y-133030000D02*
X172228000Y-133030000D01*
X169926000Y-133604000D02*
X170500000Y-133030000D01*
X169926000Y-134874000D02*
X169926000Y-133604000D01*
X169484000Y-135316000D02*
X169926000Y-134874000D01*
X168926000Y-135316000D02*
X169484000Y-135316000D01*
X160340000Y-130556000D02*
X160340000Y-130490000D01*
X160340000Y-130490000D02*
X161544000Y-129286000D01*
X161544000Y-129286000D02*
X164846000Y-129286000D01*
X165730000Y-130170000D02*
X164846000Y-129286000D01*
X165730000Y-130556000D02*
X165730000Y-130170000D01*
D20*
X168402000Y-131064000D02*
X168402000Y-129794000D01*
D19*
X168402000Y-130048000D02*
X168402000Y-129794000D01*
X183134000Y-128905000D02*
X183896000Y-129667000D01*
X169291000Y-128905000D02*
X183134000Y-128905000D01*
X183896000Y-129667000D02*
X185166000Y-129667000D01*
X168402000Y-129794000D02*
X169291000Y-128905000D01*
D18*
%TO.N,Net-(D1-Pad1)*%
X155448000Y-129048000D02*
X155972000Y-129048000D01*
X158303500Y-131379500D02*
X158303500Y-132588000D01*
X155972000Y-129048000D02*
X158303500Y-131379500D01*
%TO.N,Net-(D2-Pad1)*%
X158303500Y-134874000D02*
X158303500Y-134681500D01*
X155972000Y-132350000D02*
X155448000Y-132350000D01*
X158303500Y-134681500D02*
X155972000Y-132350000D01*
%TO.N,Net-(D3-Pad1)*%
X158303500Y-137160000D02*
X157988000Y-137160000D01*
X156480000Y-135652000D02*
X155448000Y-135652000D01*
X157988000Y-137160000D02*
X156480000Y-135652000D01*
%TO.N,Net-(Q1-Pad3)*%
X180610000Y-131130000D02*
X180610000Y-130826000D01*
X180610000Y-130826000D02*
X179832000Y-130048000D01*
X179832000Y-130048000D02*
X176911000Y-130048000D01*
X175895000Y-131064000D02*
X175895000Y-131445000D01*
X176911000Y-130048000D02*
X175895000Y-131064000D01*
X174228000Y-132080000D02*
X174371000Y-132080000D01*
X175006000Y-131445000D02*
X175895000Y-131445000D01*
X174371000Y-132080000D02*
X175006000Y-131445000D01*
%TO.N,Net-(Q1-Pad1)*%
X162052000Y-132588000D02*
X162875500Y-132588000D01*
X161228500Y-132588000D02*
X162052000Y-132588000D01*
X172228000Y-131130000D02*
X172228000Y-131334000D01*
X172228000Y-131334000D02*
X173228000Y-132334000D01*
X173228000Y-132334000D02*
X173228000Y-132842000D01*
X173228000Y-132842000D02*
X173736000Y-133350000D01*
X174498000Y-134112000D02*
X174498000Y-134366000D01*
X173736000Y-133350000D02*
X174498000Y-134112000D01*
%TO.N,/IN1*%
X153339000Y-132207000D02*
X154498000Y-131048000D01*
X151765000Y-132207000D02*
X153339000Y-132207000D01*
%TO.N,/IN2*%
X154101000Y-134747000D02*
X154498000Y-134350000D01*
X151765000Y-134747000D02*
X154101000Y-134747000D01*
%TO.N,/IN3*%
X154133000Y-137287000D02*
X154498000Y-137652000D01*
X151765000Y-137287000D02*
X154133000Y-137287000D01*
D19*
%TO.N,/OUT1*%
X182737000Y-132207000D02*
X182610000Y-132080000D01*
X185166000Y-132207000D02*
X182737000Y-132207000D01*
%TO.N,/OUT2*%
X183388000Y-134747000D02*
X185166000Y-134747000D01*
X183007000Y-134366000D02*
X183388000Y-134747000D01*
X179054000Y-134366000D02*
X183007000Y-134366000D01*
%TO.N,/OUT3*%
X183245000Y-137287000D02*
X182610000Y-136652000D01*
X185166000Y-137287000D02*
X183245000Y-137287000D01*
D18*
%TO.N,Net-(Q3-Pad3)*%
X177054000Y-133416000D02*
X176210000Y-133416000D01*
X175707000Y-133416000D02*
X175641000Y-133350000D01*
X176210000Y-133416000D02*
X175707000Y-133416000D01*
X170926000Y-136001000D02*
X170942000Y-136017000D01*
X170926000Y-134366000D02*
X170926000Y-136001000D01*
X170626500Y-136332500D02*
X170942000Y-136017000D01*
X170626500Y-137160000D02*
X170626500Y-136332500D01*
%TO.N,Net-(Q3-Pad1)*%
X162052000Y-134874000D02*
X162875500Y-134874000D01*
X161228500Y-134874000D02*
X162052000Y-134874000D01*
X168926000Y-133416000D02*
X167828000Y-133416000D01*
X167386000Y-133858000D02*
X167132000Y-133858000D01*
X167828000Y-133416000D02*
X167386000Y-133858000D01*
%TO.N,Net-(Q5-Pad1)*%
X172228000Y-135702000D02*
X172228000Y-134890000D01*
X172228000Y-134382000D02*
X172212000Y-134366000D01*
X172228000Y-134890000D02*
X172228000Y-134382000D01*
X162052000Y-137160000D02*
X162875500Y-137160000D01*
X161228500Y-137160000D02*
X162052000Y-137160000D01*
%TO.N,Net-(Q5-Pad3)*%
X174228000Y-136652000D02*
X174371000Y-136652000D01*
X175006000Y-137287000D02*
X175891000Y-137287000D01*
X174371000Y-136652000D02*
X175006000Y-137287000D01*
X175514000Y-137287000D02*
X174879000Y-137922000D01*
X175891000Y-137287000D02*
X175514000Y-137287000D01*
X179639000Y-135702000D02*
X180610000Y-135702000D01*
X179578000Y-135763000D02*
X179639000Y-135702000D01*
%TD*%
M02*
