%TF.GenerationSoftware,KiCad,Pcbnew,5.1.9-1.fc32*%
%TF.CreationDate,2021-02-20T11:42:22+01:00*%
%TF.ProjectId,rgb_led_strip_amp,7267625f-6c65-4645-9f73-747269705f61,rev?*%
%TF.SameCoordinates,Original*%
%TF.FileFunction,Soldermask,Top*%
%TF.FilePolarity,Negative*%
%FSLAX46Y46*%
G04 Gerber Fmt 4.6, Leading zero omitted, Abs format (unit mm)*
G04 Created by KiCad (PCBNEW 5.1.9-1.fc32) date 2021-02-20 11:42:22*
%MOMM*%
%LPD*%
G01*
G04 APERTURE LIST*
%TA.AperFunction,Profile*%
%ADD10C,0.050000*%
%TD*%
%ADD11R,0.900000X0.800000*%
%ADD12R,1.200000X2.500000*%
%ADD13R,0.800000X0.900000*%
%ADD14R,2.500000X1.300000*%
%ADD15C,0.900000*%
%ADD16C,1.000000*%
G04 APERTURE END LIST*
D10*
X186944000Y-127762000D02*
X149860000Y-127762000D01*
X186944000Y-138938000D02*
X186944000Y-127762000D01*
X149860000Y-138938000D02*
X186944000Y-138938000D01*
X149860000Y-127762000D02*
X149860000Y-138938000D01*
D11*
%TO.C,Q4*%
X177054000Y-133416000D03*
X177054000Y-135316000D03*
X179054000Y-134366000D03*
%TD*%
%TO.C,R9*%
G36*
G01*
X178253500Y-137912003D02*
X178253500Y-136661997D01*
G75*
G02*
X178503497Y-136412000I249997J0D01*
G01*
X179128503Y-136412000D01*
G75*
G02*
X179378500Y-136661997I0J-249997D01*
G01*
X179378500Y-137912003D01*
G75*
G02*
X179128503Y-138162000I-249997J0D01*
G01*
X178503497Y-138162000D01*
G75*
G02*
X178253500Y-137912003I0J249997D01*
G01*
G37*
G36*
G01*
X175328500Y-137912003D02*
X175328500Y-136661997D01*
G75*
G02*
X175578497Y-136412000I249997J0D01*
G01*
X176203503Y-136412000D01*
G75*
G02*
X176453500Y-136661997I0J-249997D01*
G01*
X176453500Y-137912003D01*
G75*
G02*
X176203503Y-138162000I-249997J0D01*
G01*
X175578497Y-138162000D01*
G75*
G02*
X175328500Y-137912003I0J249997D01*
G01*
G37*
%TD*%
%TO.C,R8*%
G36*
G01*
X158866000Y-136534997D02*
X158866000Y-137785003D01*
G75*
G02*
X158616003Y-138035000I-249997J0D01*
G01*
X157990997Y-138035000D01*
G75*
G02*
X157741000Y-137785003I0J249997D01*
G01*
X157741000Y-136534997D01*
G75*
G02*
X157990997Y-136285000I249997J0D01*
G01*
X158616003Y-136285000D01*
G75*
G02*
X158866000Y-136534997I0J-249997D01*
G01*
G37*
G36*
G01*
X161791000Y-136534997D02*
X161791000Y-137785003D01*
G75*
G02*
X161541003Y-138035000I-249997J0D01*
G01*
X160915997Y-138035000D01*
G75*
G02*
X160666000Y-137785003I0J249997D01*
G01*
X160666000Y-136534997D01*
G75*
G02*
X160915997Y-136285000I249997J0D01*
G01*
X161541003Y-136285000D01*
G75*
G02*
X161791000Y-136534997I0J-249997D01*
G01*
G37*
%TD*%
%TO.C,R7*%
G36*
G01*
X163438000Y-136534997D02*
X163438000Y-137785003D01*
G75*
G02*
X163188003Y-138035000I-249997J0D01*
G01*
X162562997Y-138035000D01*
G75*
G02*
X162313000Y-137785003I0J249997D01*
G01*
X162313000Y-136534997D01*
G75*
G02*
X162562997Y-136285000I249997J0D01*
G01*
X163188003Y-136285000D01*
G75*
G02*
X163438000Y-136534997I0J-249997D01*
G01*
G37*
G36*
G01*
X166363000Y-136534997D02*
X166363000Y-137785003D01*
G75*
G02*
X166113003Y-138035000I-249997J0D01*
G01*
X165487997Y-138035000D01*
G75*
G02*
X165238000Y-137785003I0J249997D01*
G01*
X165238000Y-136534997D01*
G75*
G02*
X165487997Y-136285000I249997J0D01*
G01*
X166113003Y-136285000D01*
G75*
G02*
X166363000Y-136534997I0J-249997D01*
G01*
G37*
%TD*%
%TO.C,Q5*%
X174228000Y-136652000D03*
X172228000Y-137602000D03*
X172228000Y-135702000D03*
%TD*%
D12*
%TO.C,J2*%
X170402000Y-131064000D03*
X168402000Y-131064000D03*
%TD*%
%TO.C,C2*%
G36*
G01*
X164330000Y-130081000D02*
X164330000Y-131031000D01*
G75*
G02*
X164080000Y-131281000I-250000J0D01*
G01*
X163580000Y-131281000D01*
G75*
G02*
X163330000Y-131031000I0J250000D01*
G01*
X163330000Y-130081000D01*
G75*
G02*
X163580000Y-129831000I250000J0D01*
G01*
X164080000Y-129831000D01*
G75*
G02*
X164330000Y-130081000I0J-250000D01*
G01*
G37*
G36*
G01*
X166230000Y-130081000D02*
X166230000Y-131031000D01*
G75*
G02*
X165980000Y-131281000I-250000J0D01*
G01*
X165480000Y-131281000D01*
G75*
G02*
X165230000Y-131031000I0J250000D01*
G01*
X165230000Y-130081000D01*
G75*
G02*
X165480000Y-129831000I250000J0D01*
G01*
X165980000Y-129831000D01*
G75*
G02*
X166230000Y-130081000I0J-250000D01*
G01*
G37*
%TD*%
%TO.C,C1*%
G36*
G01*
X161740000Y-131031000D02*
X161740000Y-130081000D01*
G75*
G02*
X161990000Y-129831000I250000J0D01*
G01*
X162490000Y-129831000D01*
G75*
G02*
X162740000Y-130081000I0J-250000D01*
G01*
X162740000Y-131031000D01*
G75*
G02*
X162490000Y-131281000I-250000J0D01*
G01*
X161990000Y-131281000D01*
G75*
G02*
X161740000Y-131031000I0J250000D01*
G01*
G37*
G36*
G01*
X159840000Y-131031000D02*
X159840000Y-130081000D01*
G75*
G02*
X160090000Y-129831000I250000J0D01*
G01*
X160590000Y-129831000D01*
G75*
G02*
X160840000Y-130081000I0J-250000D01*
G01*
X160840000Y-131031000D01*
G75*
G02*
X160590000Y-131281000I-250000J0D01*
G01*
X160090000Y-131281000D01*
G75*
G02*
X159840000Y-131031000I0J250000D01*
G01*
G37*
%TD*%
D13*
%TO.C,D3*%
X155448000Y-135652000D03*
X156398000Y-137652000D03*
X154498000Y-137652000D03*
%TD*%
%TO.C,D1*%
X155448000Y-129048000D03*
X156398000Y-131048000D03*
X154498000Y-131048000D03*
%TD*%
%TO.C,D2*%
X154498000Y-134350000D03*
X156398000Y-134350000D03*
X155448000Y-132350000D03*
%TD*%
D11*
%TO.C,Q1*%
X172228000Y-131130000D03*
X172228000Y-133030000D03*
X174228000Y-132080000D03*
%TD*%
%TO.C,Q2*%
X182610000Y-132080000D03*
X180610000Y-133030000D03*
X180610000Y-131130000D03*
%TD*%
%TO.C,Q3*%
X168926000Y-133416000D03*
X168926000Y-135316000D03*
X170926000Y-134366000D03*
%TD*%
%TO.C,Q6*%
X182610000Y-136652000D03*
X180610000Y-137602000D03*
X180610000Y-135702000D03*
%TD*%
%TO.C,R2*%
G36*
G01*
X161791000Y-131962998D02*
X161791000Y-133213002D01*
G75*
G02*
X161541002Y-133463000I-249998J0D01*
G01*
X160915998Y-133463000D01*
G75*
G02*
X160666000Y-133213002I0J249998D01*
G01*
X160666000Y-131962998D01*
G75*
G02*
X160915998Y-131713000I249998J0D01*
G01*
X161541002Y-131713000D01*
G75*
G02*
X161791000Y-131962998I0J-249998D01*
G01*
G37*
G36*
G01*
X158866000Y-131962998D02*
X158866000Y-133213002D01*
G75*
G02*
X158616002Y-133463000I-249998J0D01*
G01*
X157990998Y-133463000D01*
G75*
G02*
X157741000Y-133213002I0J249998D01*
G01*
X157741000Y-131962998D01*
G75*
G02*
X157990998Y-131713000I249998J0D01*
G01*
X158616002Y-131713000D01*
G75*
G02*
X158866000Y-131962998I0J-249998D01*
G01*
G37*
%TD*%
%TO.C,R3*%
G36*
G01*
X175332500Y-132070002D02*
X175332500Y-130819998D01*
G75*
G02*
X175582498Y-130570000I249998J0D01*
G01*
X176207502Y-130570000D01*
G75*
G02*
X176457500Y-130819998I0J-249998D01*
G01*
X176457500Y-132070002D01*
G75*
G02*
X176207502Y-132320000I-249998J0D01*
G01*
X175582498Y-132320000D01*
G75*
G02*
X175332500Y-132070002I0J249998D01*
G01*
G37*
G36*
G01*
X178257500Y-132070002D02*
X178257500Y-130819998D01*
G75*
G02*
X178507498Y-130570000I249998J0D01*
G01*
X179132502Y-130570000D01*
G75*
G02*
X179382500Y-130819998I0J-249998D01*
G01*
X179382500Y-132070002D01*
G75*
G02*
X179132502Y-132320000I-249998J0D01*
G01*
X178507498Y-132320000D01*
G75*
G02*
X178257500Y-132070002I0J249998D01*
G01*
G37*
%TD*%
%TO.C,R4*%
G36*
G01*
X166363000Y-134248998D02*
X166363000Y-135499002D01*
G75*
G02*
X166113002Y-135749000I-249998J0D01*
G01*
X165487998Y-135749000D01*
G75*
G02*
X165238000Y-135499002I0J249998D01*
G01*
X165238000Y-134248998D01*
G75*
G02*
X165487998Y-133999000I249998J0D01*
G01*
X166113002Y-133999000D01*
G75*
G02*
X166363000Y-134248998I0J-249998D01*
G01*
G37*
G36*
G01*
X163438000Y-134248998D02*
X163438000Y-135499002D01*
G75*
G02*
X163188002Y-135749000I-249998J0D01*
G01*
X162562998Y-135749000D01*
G75*
G02*
X162313000Y-135499002I0J249998D01*
G01*
X162313000Y-134248998D01*
G75*
G02*
X162562998Y-133999000I249998J0D01*
G01*
X163188002Y-133999000D01*
G75*
G02*
X163438000Y-134248998I0J-249998D01*
G01*
G37*
%TD*%
%TO.C,R5*%
G36*
G01*
X158866000Y-134248998D02*
X158866000Y-135499002D01*
G75*
G02*
X158616002Y-135749000I-249998J0D01*
G01*
X157990998Y-135749000D01*
G75*
G02*
X157741000Y-135499002I0J249998D01*
G01*
X157741000Y-134248998D01*
G75*
G02*
X157990998Y-133999000I249998J0D01*
G01*
X158616002Y-133999000D01*
G75*
G02*
X158866000Y-134248998I0J-249998D01*
G01*
G37*
G36*
G01*
X161791000Y-134248998D02*
X161791000Y-135499002D01*
G75*
G02*
X161541002Y-135749000I-249998J0D01*
G01*
X160915998Y-135749000D01*
G75*
G02*
X160666000Y-135499002I0J249998D01*
G01*
X160666000Y-134248998D01*
G75*
G02*
X160915998Y-133999000I249998J0D01*
G01*
X161541002Y-133999000D01*
G75*
G02*
X161791000Y-134248998I0J-249998D01*
G01*
G37*
%TD*%
%TO.C,R6*%
G36*
G01*
X168264000Y-136534998D02*
X168264000Y-137785002D01*
G75*
G02*
X168014002Y-138035000I-249998J0D01*
G01*
X167388998Y-138035000D01*
G75*
G02*
X167139000Y-137785002I0J249998D01*
G01*
X167139000Y-136534998D01*
G75*
G02*
X167388998Y-136285000I249998J0D01*
G01*
X168014002Y-136285000D01*
G75*
G02*
X168264000Y-136534998I0J-249998D01*
G01*
G37*
G36*
G01*
X171189000Y-136534998D02*
X171189000Y-137785002D01*
G75*
G02*
X170939002Y-138035000I-249998J0D01*
G01*
X170313998Y-138035000D01*
G75*
G02*
X170064000Y-137785002I0J249998D01*
G01*
X170064000Y-136534998D01*
G75*
G02*
X170313998Y-136285000I249998J0D01*
G01*
X170939002Y-136285000D01*
G75*
G02*
X171189000Y-136534998I0J-249998D01*
G01*
G37*
%TD*%
%TO.C,R1*%
G36*
G01*
X166363000Y-131962998D02*
X166363000Y-133213002D01*
G75*
G02*
X166113002Y-133463000I-249998J0D01*
G01*
X165487998Y-133463000D01*
G75*
G02*
X165238000Y-133213002I0J249998D01*
G01*
X165238000Y-131962998D01*
G75*
G02*
X165487998Y-131713000I249998J0D01*
G01*
X166113002Y-131713000D01*
G75*
G02*
X166363000Y-131962998I0J-249998D01*
G01*
G37*
G36*
G01*
X163438000Y-131962998D02*
X163438000Y-133213002D01*
G75*
G02*
X163188002Y-133463000I-249998J0D01*
G01*
X162562998Y-133463000D01*
G75*
G02*
X162313000Y-133213002I0J249998D01*
G01*
X162313000Y-131962998D01*
G75*
G02*
X162562998Y-131713000I249998J0D01*
G01*
X163188002Y-131713000D01*
G75*
G02*
X163438000Y-131962998I0J-249998D01*
G01*
G37*
%TD*%
D14*
%TO.C,J1*%
X151765000Y-134747000D03*
X151765000Y-132207000D03*
X151765000Y-129667000D03*
X151765000Y-137287000D03*
%TD*%
%TO.C,J3*%
X185166000Y-129667000D03*
X185166000Y-137287000D03*
X185166000Y-134747000D03*
X185166000Y-132207000D03*
%TD*%
D15*
X163068000Y-130556000D03*
X167386000Y-135890000D03*
D16*
X170434000Y-131500000D03*
X170434000Y-130600000D03*
X177609500Y-135953500D03*
X177165000Y-131572000D03*
X185547000Y-129667000D03*
X151384000Y-129667000D03*
X152220000Y-129667000D03*
X184700000Y-129667000D03*
X168402000Y-130700000D03*
X168402000Y-129850000D03*
D15*
X162052000Y-132588000D03*
X174498000Y-134366000D03*
X175641000Y-133350000D03*
X170942000Y-136017000D03*
X167132000Y-133858000D03*
X162052000Y-134874000D03*
X172212000Y-134366000D03*
X162052000Y-137160000D03*
X174879000Y-137922000D03*
X179578000Y-135763000D03*
M02*
